<svg width="51" height="30" viewBox="0 0 51 30" fill="none" xmlns="http://www.w3.org/2000/svg">
<path d="M1 4.55225C8.06306 5.10946 22.8324 8.5224 25.4054 17.7164C26.2252 13.9552 32.2919 6.05672 50 4.55225" stroke="black" stroke-width="2" stroke-linecap="round"/>
<path d="M7.81079 1C12.8831 1.44223 23.4897 4.15091 25.3375 11.4478C25.9262 8.46269 30.283 2.19403 43 1" stroke="black" stroke-width="2" stroke-linecap="round"/>
<path d="M8 11.8657V18.7612M38.8378 12.4925C36.8829 15 32.1784 20.9761 29 24.8209C25.8216 28.6657 22.2523 29.0696 20.8649 28.791C20.2342 28.791 17.9514 28.791 13.8649 28.791C9.77838 28.791 8.25225 24.3333 8 22.1045V18.7612M8 18.7612H14.6216" stroke="black" stroke-width="2" stroke-linecap="round"/>
<path d="M42.6216 11.8657V19.1791M42.6216 29V19.1791M42.6216 19.1791H36.7567" stroke="black" stroke-width="2" stroke-linecap="round"/>
</svg>
